<svg xmlns="http://www.w3.org/2000/svg" width="24" height="24" viewBox="0 0 24 24">
    <rect width="24" height="24" fill="#607B96"/>
    <path d="M12 1.85c-.27 0-.55.07-.78.2L3.6 6.38a1.55 1.55 0 0 0-.78 1.34v8.57c0 .55.3 1.06.78 1.34l7.62 4.33c.23.13.5.2.78.2.27 0 .54-.07.78-.2l7.62-4.33c.48-.28.78-.79.78-1.34V7.72c0-.55-.3-1.06-.78-1.34l-7.62-4.33a1.59 1.59 0 0 0-.78-.2zm0 4.45c2.07 0 3.77 1.7 3.77 3.77 0 2.08-1.7 3.77-3.77 3.77-2.08 0-3.77-1.7-3.77-3.77 0-2.08 1.7-3.77 3.77-3.77z" fill="#ffffff"/>
</svg> 