<svg xmlns="http://www.w3.org/2000/svg" width="24" height="24" viewBox="0 0 24 24" fill="#607B96">
    <path d="M12 17.5C8.14 17.5 5 14.36 5 10.5C5 6.64 8.14 3.5 12 3.5C15.86 3.5 19 6.64 19 10.5C19 14.36 15.86 17.5 12 17.5M12 1.5C7.04 1.5 3 5.54 3 10.5C3 15.46 7.04 19.5 12 19.5C16.96 19.5 21 15.46 21 10.5C21 5.54 16.96 1.5 12 1.5M12 15.5C9.24 15.5 7 13.26 7 10.5C7 7.74 9.24 5.5 12 5.5C14.76 5.5 17 7.74 17 10.5C17 13.26 14.76 15.5 12 15.5M12 7.5C10.34 7.5 9 8.84 9 10.5C9 12.16 10.34 13.5 12 13.5C13.66 13.5 15 12.16 15 10.5C15 8.84 13.66 7.5 12 7.5M12 11.5C11.45 11.5 11 11.05 11 10.5C11 9.95 11.45 9.5 12 9.5C12.55 9.5 13 9.95 13 10.5C13 11.05 12.55 11.5 12 11.5M12 21.5C8.14 21.5 5 20.36 5 19V17.31C6.67 18.39 9.39 19 12 19C14.61 19 17.33 18.39 19 17.31V19C19 20.36 15.86 21.5 12 21.5M12 23.5C8.14 23.5 5 22.36 5 21V19.31C6.67 20.39 9.39 21 12 21C14.61 21 17.33 20.39 19 19.31V21C19 22.36 15.86 23.5 12 23.5"/>
</svg> 